<svg width="24" height="24" viewBox="0 0 1200 1200" fill="none" xmlns="http://www.w3.org/2000/svg">
<mask id="mask0_410_4383" style="mask-type:alpha" maskUnits="userSpaceOnUse" x="0" y="0" width="1197" height="1197">
<circle cx="598.033" cy="598.033" r="598.033" fill="#D9D9D9"/>
</mask>
<g mask="url(#mask0_410_4383)">
<path d="M1056.08 1334.9H64.3149C64.3149 1334.9 76.0796 1163.92 135.687 1034.12C156.864 988.235 173.335 921.568 212.158 891.372C256.864 856.863 345.099 835.294 376.472 829.019C399.609 824.313 402.746 828.627 418.825 824.313C418.825 826.274 419.217 827.843 419.217 829.804C419.217 829.804 461.57 955.686 571.766 1000.39C661.57 1036.86 714.903 1012.55 723.138 972.157C728.237 946.274 712.158 903.921 703.923 890.196C699.217 886.274 696.08 880.392 694.511 874.51L691.374 861.568C698.825 860 705.884 858.039 712.942 855.686C715.295 854.902 717.256 854.117 719.609 853.333C776.472 869.412 845.491 898.431 905.884 944.314C938.825 969.412 966.276 1034.12 1000 1143.53C1039.61 1269.41 1056.08 1334.9 1056.08 1334.9Z" fill="#CF1020"/>
<path d="M755.297 951.764C754.12 940.784 752.159 930.98 750.199 922.352C741.963 883.921 717.257 850.196 717.257 850.196C717.257 850.196 655.297 807.45 559.61 796.078C463.924 784.705 417.257 796.078 417.257 796.078C410.199 798.431 401.571 803.137 393.728 807.45C379.61 815.686 368.238 827.45 361.179 841.96C361.179 842.352 360.787 842.352 360.787 842.745C350.591 872.156 403.14 980.784 538.434 1041.57C678.042 1104.31 764.708 1030.98 755.297 951.764Z" fill="#CF1020"/>
<path d="M258.827 1563.53C253.728 1448.63 251.376 1327.45 249.807 1212.16C249.023 1167.45 247.062 1122.35 258.042 1078.43C274.905 1005.1 325.885 936.471 398.827 912.55L396.081 915.295C404.317 894.511 413.336 871.373 433.336 859.217C434.121 858.824 434.513 860.001 434.121 860.393C420.395 869.805 412.944 885.883 406.67 901.177C404.317 906.275 403.14 912.55 400.787 917.256C373.336 927.452 349.023 945.099 329.023 965.883C309.023 987.06 292.944 1012.16 282.356 1039.22C268.63 1073.33 262.748 1109.8 261.572 1146.28C260.787 1283.92 264.709 1429.41 258.827 1563.53Z" fill="black"/>
<path d="M433.335 1563.53C425.491 1491.76 420.786 1418.04 420.001 1345.88C419.217 1279.61 421.178 1211.37 429.021 1145.49C433.335 1107.06 447.06 1019.22 475.687 993.725L478.825 991.372C480.786 990.588 481.178 989.803 483.923 989.411L480.001 993.333C481.962 978.431 487.452 964.313 495.295 951.764C498.04 947.843 500.786 943.921 503.923 940C504.315 939.607 505.491 940 504.707 940.784C501.962 944.705 499.217 948.627 497.256 952.941C490.589 965.49 485.884 979.215 484.707 993.333C484.707 993.725 484.315 993.725 484.315 994.117C481.962 994.902 479.217 996.862 477.256 999.215C471.374 1005.49 467.452 1014.51 463.923 1022.35C458.433 1036.08 454.511 1050.98 451.374 1065.88C443.531 1103.92 439.217 1143.92 436.08 1182.74C431.766 1247.84 430.197 1316.86 430.197 1381.96L430.589 1418.43C430.589 1466.67 432.942 1515.29 434.119 1563.53C434.511 1563.92 433.335 1564.31 433.335 1563.53Z" fill="black"/>
<path d="M594.51 1563.53C594.902 1443.92 589.804 1323.92 589.412 1204.31C589.02 1150.2 589.02 1094.51 590.196 1040.39C593.726 1026.27 596.471 1011.37 597.647 996.471C598.039 991.765 598.039 986.667 597.647 981.569C597.647 980.784 598.824 980.784 598.824 981.569C601.961 1001.18 599.608 1021.18 595.686 1040.78C597.255 1083.53 598.824 1127.84 599.608 1171.37C602.353 1269.41 603.137 1367.45 600.784 1465.49C600.392 1484.31 599.216 1512.16 598.039 1530.98C597.255 1541.96 596.078 1552.55 595.294 1563.53C595.294 1563.92 594.902 1563.92 594.51 1563.92C594.51 1563.92 594.51 1563.53 594.51 1563.53Z" fill="black"/>
<path d="M778.041 1563.53C774.511 1472.94 772.158 1378.04 764.315 1287.84C759.609 1230.59 752.158 1174.12 741.178 1118.04C734.511 1084.31 725.884 1050.2 712.158 1018.43C709.805 1000.39 703.923 980.784 689.805 968.235C689.413 967.843 689.413 967.45 689.805 967.45C690.198 967.058 690.198 967.058 690.59 967.45C694.511 970.195 698.041 973.725 701.178 977.646C709.805 989.019 715.296 1004.71 717.256 1017.65C733.335 1048.63 742.354 1082.35 750.59 1116.08C755.688 1138.04 760.394 1161.96 763.923 1183.92C769.021 1215.29 773.727 1255.29 776.08 1287.06C778.041 1306.27 779.217 1336.47 780.394 1356.08C781.962 1402.35 782.354 1448.23 781.57 1494.51L779.609 1563.53C779.609 1563.92 779.217 1563.92 778.825 1563.92C778.433 1563.92 778.041 1563.53 778.041 1563.53Z" fill="black"/>
<path d="M925.49 1563.14C935.294 1455.69 931.372 1346.67 916.078 1240C912.157 1212.16 906.274 1183.14 900 1155.69C892.549 1128.63 883.529 1101.18 871.372 1076.08C862.745 1056.86 851.372 1038.43 840 1020.78C824.313 998.431 804.313 975.294 782.745 958.431C771.764 949.412 760 940.784 747.451 934.51C741.176 926.275 737.255 918.039 728.235 910.196C721.176 903.529 712.549 898.039 702.745 897.647C702.353 897.647 701.96 897.255 701.96 896.863C701.96 896.471 702.353 896.471 702.353 896.471C707.451 896.078 712.549 897.647 717.255 899.608C730.98 906.275 741.176 918.431 749.411 930.98C803.921 956.471 847.059 1008.24 875.686 1061.57C887.059 1084.31 897.255 1107.84 904.313 1132.16L910.588 1152.94C929.411 1230.59 936.862 1310.59 938.039 1390.2C938.431 1448.24 935.294 1506.27 926.274 1563.53C926.274 1563.92 925.882 1563.92 925.49 1563.92C925.49 1563.92 925.49 1563.53 925.49 1563.14Z" fill="black"/>
<path d="M749.023 1112.16C803.925 1114.12 844.709 1096.47 850.983 1037.25C851.376 1032.55 854.905 1029.02 859.219 1028.23C883.14 1022.35 899.219 1001.18 903.925 977.254C905.101 973.333 905.493 968.234 906.278 964.313C906.67 959.999 907.062 955.293 907.454 950.587C907.454 950.195 907.846 950.195 908.238 950.195C908.63 950.195 908.63 950.587 908.63 950.587C909.415 958.823 910.199 969.803 909.415 978.038C907.846 1005.88 889.415 1032.16 861.572 1039.61L862.356 1038.82C859.219 1082.35 832.552 1114.12 787.846 1116.86C774.905 1118.04 761.572 1116.86 748.63 1113.72C748.238 1113.72 748.238 1113.33 748.238 1112.94C748.238 1112.16 748.63 1112.16 749.023 1112.16Z" fill="black"/>
<path d="M201.178 931.372C205.491 953.725 218.432 975.686 238.04 987.45C239.609 988.627 243.138 990.195 244.707 991.372C248.236 992.94 252.158 994.509 255.687 995.686L263.138 997.646C265.099 998.431 268.628 998.823 270.981 999.215L278.825 1000.39C286.668 1001.57 298.825 997.254 302.746 1006.27C328.628 1061.18 379.217 1102.74 442.746 1090.59C446.668 1090.2 450.589 1091.76 452.158 1095.29C455.687 1100.78 460.393 1106.67 464.707 1111.76C487.06 1138.43 520.785 1158.04 556.472 1150.59C570.589 1147.84 584.315 1141.96 596.864 1134.12C597.256 1133.72 597.648 1134.12 597.648 1134.12C542.354 1180 480.393 1155.69 442.746 1100.78L443.923 1101.18C428.236 1103.92 412.158 1104.71 396.079 1101.57C349.021 1092.94 312.942 1052.94 294.119 1009.41L294.903 1009.8C286.668 1009.41 277.648 1009.02 269.413 1007.06C267.06 1006.67 263.138 1005.88 261.178 1005.1C256.472 1003.92 249.413 1001.18 245.099 998.823L241.178 996.862L237.648 994.509C236.079 993.333 232.158 991.372 230.589 989.803C212.55 975.686 201.962 953.333 199.609 930.98C199.609 930.587 200.001 930.195 200.001 930.195C201.178 930.98 201.178 930.98 201.178 931.372Z" fill="black"/>
<path d="M735.688 1064.71C782.747 1052.16 805.884 1024.71 798.825 975.294C798.433 972.157 799.217 969.02 801.178 967.059C814.119 951.765 817.648 930.98 815.688 911.372C815.296 905.098 812.943 896.078 811.766 889.804C811.766 889.412 811.766 889.02 812.158 889.02C812.55 889.02 812.55 889.02 812.943 889.412C816.08 896.078 819.217 903.137 821.178 910.196C825.099 924.706 825.099 940.392 820.394 954.51C818.041 961.569 814.511 968.627 809.805 974.51L810.198 973.725C816.864 1009.02 805.099 1045.49 769.413 1059.22C758.825 1063.53 747.452 1065.88 736.08 1066.27C734.903 1065.88 734.903 1064.71 735.688 1064.71Z" fill="black"/>
<path d="M292.55 871.764C286.276 892.156 293.334 914.901 308.629 929.411L310.589 931.764L312.942 933.725C317.648 937.646 323.138 941.176 328.236 944.705L339.217 950.587C341.57 951.764 343.138 954.117 343.531 956.862C351.374 986.274 375.295 1009.41 402.354 1021.96C419.609 1030.98 438.433 1035.29 457.256 1038.82C462.746 1040 464.315 1045.1 468.236 1048.63C472.55 1052.94 477.256 1057.25 481.962 1061.18C510.589 1085.49 549.021 1098.43 586.668 1093.33L596.472 1092.16C596.864 1092.16 597.256 1092.16 597.256 1092.55C597.256 1092.94 597.256 1092.94 596.864 1093.33C558.825 1105.1 516.864 1097.65 483.923 1074.9C474.119 1068.23 460.393 1056.86 454.903 1049.41C428.629 1045.1 401.962 1037.25 380.001 1021.96C358.825 1007.84 338.04 981.176 335.295 958.039C328.629 954.117 318.825 947.842 312.942 943.137C311.766 942.352 306.668 937.254 305.491 936.078C303.531 933.725 300.785 930.98 299.217 928.235C287.452 911.764 283.531 889.411 291.766 870.587C291.766 870.195 292.158 870.195 292.55 870.195C292.942 870.98 292.942 871.372 292.55 871.764Z" fill="black"/>
<path d="M361.178 842.352C360.393 860.391 367.06 878.431 378.825 891.764C381.178 894.901 385.099 898.431 388.236 901.176C389.413 901.96 393.334 905.097 394.511 905.882C398.433 909.019 405.491 910.587 405.884 916.078C407.06 924.705 411.374 933.725 416.472 940.783C432.55 964.313 460.393 976.862 487.452 984.705C489.805 985.489 491.374 986.666 492.55 988.627C516.472 1018.82 556.08 1034.51 594.119 1030.59C600.785 1030.98 606.668 1034.51 613.727 1035.69C628.629 1039.61 645.099 1041.57 660.393 1040.39C680.785 1039.61 699.609 1030.98 709.805 1013.33C711.766 1010.59 714.511 1010.2 716.864 1008.23C727.844 1000.78 736.864 990.587 742.354 978.431C749.413 963.921 747.844 947.45 743.923 932.548C744.707 926.274 745.884 919.215 745.491 912.156C745.099 892.548 737.256 873.333 724.707 858.038C723.923 857.646 725.099 856.47 725.491 857.254C745.099 876.47 754.119 905.097 750.197 932.156C762.746 964.705 748.237 1000.39 717.648 1019.21C708.236 1037.65 683.531 1050.59 661.57 1051.37C640.001 1053.33 614.119 1048.63 595.687 1042.35C553.727 1046.67 509.805 1028.63 484.315 994.509L484.707 994.901C476.08 992.156 464.315 987.842 456.472 983.921C454.511 982.744 448.236 979.607 446.276 978.431C443.923 976.862 438.825 973.725 436.864 972.156L430.982 967.45C415.295 954.509 402.746 936.862 400.001 916.47L400.393 917.254C397.256 914.901 394.119 912.94 391.374 910.587L387.06 907.058L385.099 905.097C383.138 903.136 381.178 900.784 379.217 899.215C375.687 894.901 372.158 890.195 369.413 885.489C362.354 872.548 358.825 857.254 360.785 842.352C360.785 841.96 361.178 841.96 361.57 841.96C360.785 841.96 361.178 841.96 361.178 842.352Z" fill="black"/>
<path d="M696.988 1089.66C697.119 1078.4 688.272 1069.17 677.227 1069.04C666.183 1068.91 657.123 1077.94 656.992 1089.2C656.862 1100.46 665.709 1109.69 676.753 1109.82C687.798 1109.95 696.857 1100.92 696.988 1089.66Z" fill="black"/>
<path d="M720.001 1142.74C722.746 1163.53 709.02 1182.74 689.412 1185.1C669.805 1187.45 651.765 1172.94 649.02 1151.76C646.275 1130.98 658.824 1102.35 678.432 1099.61C698.04 1097.25 717.256 1121.57 720.001 1142.74Z" fill="black"/>
<path d="M669.018 1117.65C658.822 1125.88 631.371 1126.67 620.391 1118.82C606.665 1108.23 621.175 1073.33 630.587 1062.35C630.979 1061.96 631.763 1061.96 631.763 1062.74L628.234 1085.49C627.449 1092.94 625.881 1100.78 626.665 1107.84C626.665 1109.41 628.234 1110.19 629.802 1110.59C640.391 1114.51 651.763 1115.68 663.136 1116.86C664.704 1116.86 667.449 1117.25 668.626 1116.47C668.626 1116.86 669.018 1117.25 669.018 1117.65Z" fill="black"/>
<path d="M665.883 1140.78C650.981 1151.37 634.51 1156.08 616.079 1154.12C614.902 1154.12 612.549 1153.33 611.373 1152.94C592.549 1146.66 586.275 1123.53 590.197 1105.88C590.197 1105.1 590.981 1104.7 591.373 1105.49C595.687 1119.21 601.569 1139.21 617.648 1141.96C625.491 1143.14 633.726 1142.74 641.569 1141.96C649.412 1141.17 657.648 1140.39 665.491 1138.82C666.275 1139.21 666.667 1140 665.883 1140.78C665.883 1140.78 666.275 1140.39 665.883 1140.78Z" fill="black"/>
<path d="M660.393 1160C651.765 1163.92 643.922 1167.06 637.648 1170.98C632.942 1174.12 629.804 1176.47 627.844 1181.57C625.491 1187.84 625.883 1195.29 626.275 1203.92C627.059 1211.76 628.236 1220.39 628.628 1229.8C628.628 1230.19 627.844 1230.59 627.452 1230.19C614.902 1210.19 603.53 1171.76 634.118 1162.35C642.353 1159.61 651.373 1158.82 660.001 1159.21C661.177 1158.82 661.177 1160 660.393 1160Z" fill="black"/>
<path d="M670.196 1172.55C668.628 1182.74 664.706 1189.8 667.843 1197.65C673.334 1209.02 678.039 1220.78 678.039 1234.51C678.039 1234.9 677.255 1235.29 677.255 1234.9C673.726 1230.19 670.196 1225.1 666.667 1220C662.353 1212.16 655.687 1204.31 655.687 1194.9C656.079 1185.49 662.353 1177.25 669.02 1171.37C670.196 1170.98 670.588 1171.76 670.196 1172.55Z" fill="black"/>
<path d="M692.548 1113.72C694.509 1111.76 698.823 1108.23 701.175 1106.27C707.45 1101.17 716.077 1095.68 722.352 1090.59C722.744 1090.19 723.136 1089.8 722.744 1090.59C722.352 1090.98 721.96 1091.76 721.568 1092.55C721.175 1093.72 720.783 1094.51 721.175 1095.68C717.646 1081.57 713.332 1067.84 714.117 1052.55V1052.16C714.117 1051.76 714.901 1051.37 715.293 1051.76C720.391 1061.96 725.489 1072.55 729.411 1083.14C730.979 1087.06 732.94 1091.37 732.94 1096.08C732.548 1098.04 730.979 1098.82 729.803 1100C725.097 1103.53 719.607 1105.88 714.509 1108.23C711.764 1109.41 691.372 1118.04 692.156 1114.12C692.156 1113.72 692.548 1113.72 692.548 1113.72Z" fill="black"/>
<path d="M700.784 1134.9C714.901 1125.88 731.372 1121.96 745.489 1116.08C749.411 1113.72 751.372 1109.8 753.725 1105.1C757.254 1098.82 759.999 1090.98 763.921 1082.74C763.921 1082.35 764.313 1082.35 764.705 1082.35C765.882 1094.51 764.313 1107.84 758.038 1118.82C751.372 1130.19 736.47 1130.98 724.705 1133.33C716.47 1134.51 708.627 1135.68 700.391 1136.08C699.999 1136.08 699.999 1135.29 700.784 1134.9Z" fill="black"/>
<path d="M710.586 1152.15C741.174 1126.66 778.429 1146.66 771.763 1186.66C770.194 1196.08 766.665 1205.1 759.998 1212.55C759.606 1212.94 758.821 1212.55 758.821 1212.15C759.998 1207.84 760.782 1203.92 761.174 1199.61C765.096 1170.59 757.645 1145.88 723.135 1150.98C718.821 1151.37 714.508 1152.15 710.586 1153.33C710.194 1153.72 709.802 1152.55 710.586 1152.15Z" fill="black"/>
<path d="M705.097 1167.06C718.823 1165.49 733.724 1176.08 734.117 1191.37C733.332 1207.06 726.273 1221.17 713.332 1230.59C712.94 1230.98 712.156 1230.98 712.156 1230.19C716.077 1218.82 719.999 1207.45 721.96 1195.68C723.528 1189.8 721.96 1184.31 718.038 1179.61C714.509 1175.29 709.803 1171.37 704.705 1168.23C703.921 1167.45 704.313 1166.67 705.097 1167.06Z" fill="black"/>
<path d="M717.648 963.138C709.412 1003.53 656.079 1027.84 566.275 991.373C472.942 953.726 432.55 863.922 422.354 837.255C477.648 733.726 439.216 661.961 439.216 661.961C566.667 650.981 678.04 800 678.04 800L695.295 873.726C696.863 880 700.001 885.491 704.706 889.412C712.942 903.922 722.746 937.255 717.648 963.138Z" fill="#CF1020"/>
<path d="M420.395 838.431C427.846 827.059 432.552 813.726 435.689 800.784C441.571 773.726 443.532 746.275 443.924 718.824V708.627C442.748 698.431 439.218 687.843 435.297 678.431C430.199 665.882 448.63 658.039 454.512 670.588C455.297 672.157 455.297 674.902 455.297 676.471C456.473 729.804 458.826 798.431 425.101 842.745C422.748 845.098 418.042 841.569 420.395 838.431Z" fill="black"/>
<path d="M682.354 799.216C688.237 802.746 690.197 807.452 690.982 812.158C693.335 821.569 692.55 831.766 694.903 841.569C696.864 850.981 702.746 860.001 704.315 869.805C706.276 880.001 712.158 901.569 714.511 912.158C715.295 914.511 713.727 917.256 710.982 917.648C709.413 918.04 708.237 917.648 707.06 916.864C701.962 912.55 699.609 908.236 696.472 902.746C691.374 893.334 687.845 884.707 684.707 874.118C681.962 864.707 683.139 854.511 680.786 844.707C678.825 835.295 673.335 826.275 671.374 816.471C670.197 811.765 669.805 806.667 673.335 800.785C675.688 798.432 679.609 797.648 682.354 799.216Z" fill="black"/>
<path d="M710.591 902.745C635.689 898.823 574.512 875.294 514.904 769.02C565.1 813.333 624.316 830.196 686.669 838.039L694.904 874.118C696.473 880.392 705.885 898.823 710.591 902.745Z" fill="black"/>
<path d="M707.455 888.236C720.788 913.334 728.632 944.707 720.396 972.55C714.122 992.158 696.083 1006.67 676.475 1012.16C630.985 1024.31 578.436 1005.1 538.043 983.53C488.239 955.687 451.377 909.02 427.847 858.04C426.279 854.118 431.769 850.981 434.122 854.903C442.357 871.373 451.769 887.452 462.357 901.962C472.945 916.864 485.102 930.589 498.828 942.746C538.828 978.824 592.945 1001.18 647.063 1001.18C702.749 999.609 723.926 970.197 710.985 916.079C709.024 907.452 705.886 898.432 701.573 890.981C699.22 887.844 705.102 884.315 707.455 888.236Z" fill="black"/>
<path d="M859.215 417.255C866.274 450.197 852.548 465.099 852.548 553.334C852.548 597.648 848.235 648.236 839.607 696.863C830.587 747.059 805.489 794.51 763.529 829.805C699.999 882.746 633.333 885.099 554.509 823.53C543.529 814.903 505.097 785.883 495.293 776.079C473.333 754.51 471.372 698.824 457.254 677.255C447.45 662.353 441.568 686.275 419.215 661.569C388.235 627.844 350.98 560.001 369.411 440.001C399.215 245.491 553.333 222.746 667.45 244.314C781.568 265.491 840.391 330.589 859.215 417.255Z" fill="#CF1020"/>
<path d="M438.04 695.686C424.314 673.333 405.099 654.51 392.55 631.372C354.511 561.176 346.667 475.686 367.06 398.823C410.589 234.118 570.589 205.882 715.687 250.588C794.118 274.902 851.765 334.118 867.844 415.686C873.726 445.098 861.177 473.333 859.216 501.961C857.256 519.216 856.471 536.471 856.864 553.725C858.824 606.274 857.256 659.608 841.569 710.196C825.491 760.784 799.216 810.98 755.687 843.529C673.726 904.706 576.863 860 513.334 795.294C511.373 793.333 514.118 790.196 516.471 791.765C558.04 821.569 602.354 849.804 653.334 855.294C742.354 865.49 804.315 782.353 830.589 707.059C841.962 674.51 847.844 640.392 849.02 606.274C850.197 571.372 847.452 536.471 848.628 501.569C849.02 492.941 849.413 483.922 850.197 475.294C851.373 461.569 854.903 438.823 852.158 425.49C843.922 384.706 825.883 345.49 796.864 315.294C729.02 245.098 601.177 225.098 510.981 257.647C405.099 296.471 377.256 402.745 371.373 504.706C367.452 565.882 385.491 625.49 431.765 667.451L450.197 686.667C457.648 694.51 444.314 705.098 438.04 695.686Z" fill="black"/>
<path d="M484.314 570.981C484.314 570.981 472.157 512.157 414.903 519.216C365.491 525.49 348.236 643.922 460.393 676.863" fill="#CF1020"/>
<path d="M455.297 625.49C446.277 620.392 440.002 611.765 439.61 601.176C440.002 593.333 441.179 584.314 439.218 576.471C438.042 569.02 430.198 567.059 424.316 567.451C418.042 568.627 414.12 576.471 412.944 582.745C412.944 583.137 412.551 584.314 412.551 584.706C412.159 586.667 409.022 586.667 408.238 584.706C403.14 569.412 414.512 552.549 430.983 554.51C454.12 556.078 457.257 580.392 452.944 598.823C450.591 606.667 453.728 613.725 458.042 620.392L458.826 621.569C460.787 623.921 457.649 627.059 455.297 625.49Z" fill="black"/>
<path d="M769.022 529.411C774.904 557.254 785.885 583.136 799.61 607.45C811.767 637.254 780.394 665.489 752.551 664.313C749.414 664.313 749.022 659.999 751.767 659.215C769.414 653.725 785.492 641.96 788.237 623.921C789.414 618.431 787.845 613.725 785.1 609.019C772.159 584.705 764.316 556.862 766.277 529.411C766.277 527.45 769.022 527.45 769.022 529.411Z" fill="black"/>
<path d="M482.354 571.373C473.334 548.235 453.726 526.275 427.452 526.667C425.099 526.275 421.177 527.059 418.825 527.059C412.158 527.451 406.668 529.804 401.57 534.51C376.472 559.608 380.785 603.922 401.177 631.765C408.236 641.569 417.256 650.196 427.452 657.255C437.648 664.314 449.021 669.804 461.177 674.51C463.923 675.294 462.746 679.608 460.001 679.216C433.727 673.725 408.628 660.784 391.374 639.216C364.707 607.059 359.217 553.333 390.981 521.961C398.04 515.686 407.844 510.98 417.648 510.98C420.785 510.98 425.491 510.196 428.628 510.98C445.099 511.765 460.785 520 470.981 532.941C480.001 543.922 485.099 557.255 486.668 570.588C486.668 572.941 483.138 573.725 482.354 571.373Z" fill="black"/>
<path d="M440.392 583.137C440.392 583.137 409.02 578.431 411.373 622.352C412.549 644.705 412.549 656.862 412.157 663.137C411.765 667.451 414.51 671.372 418.431 672.941C423.137 674.901 428.235 672.941 430.588 668.235C434.118 661.96 438.039 653.333 438.039 646.274C438.039 634.509 450.588 623.921 450.588 623.921C450.588 623.921 439.216 614.117 440.392 583.137Z" fill="#CF1020"/>
<path d="M439.216 584.313C439.216 584.706 439.608 585.098 440 585.098C440 585.098 440 585.098 439.608 585.098H438.824C420 586.666 414.118 603.137 414.902 620C415.294 630.98 416.079 641.961 415.686 652.549C416.471 658.431 412.941 666.274 418.824 669.412C422.353 671.372 427.059 669.804 428.628 665.882C432.157 658.823 435.686 651.764 435.686 643.921C437.255 634.902 443.137 627.843 449.412 622.353V625.49C441.177 616.863 439.216 605.098 438.039 594.117C438.431 591.372 438.431 587.059 439.216 584.313ZM441.961 581.568C443.137 592.549 443.137 603.921 447.843 613.725C449.02 616.47 450.981 619.608 453.333 621.568C454.902 622.745 454.902 625.098 453.333 626.274C447.843 631.372 443.137 637.647 442.353 644.706C442.353 653.333 438.824 661.568 434.902 669.019C431.765 675.686 422.745 679.215 416.079 675.294C411.765 672.941 408.628 668.235 408.628 663.137C408.628 659.215 409.02 656.078 409.02 652.157C409.02 641.176 408.235 630.588 407.843 619.608C407.843 612.549 408.235 604.313 411.373 597.255C415.294 586.274 427.451 578.823 439.216 580.784C440.392 580.784 441.569 581.176 441.961 581.568Z" fill="black"/>
<path d="M435.294 1047.45C448.235 990.98 431.373 927.451 416.863 870.98C410.98 848.627 405.098 827.451 402.353 809.019C397.255 778.039 400.784 748.627 413.333 721.176C428.627 687.058 426.274 658.039 426.274 656.862L418.431 657.647C418.431 658.039 420.784 686.274 406.274 718.039C393.333 746.666 389.412 777.647 394.51 810.196C397.647 829.019 403.137 850.588 409.02 872.941C423.529 928.235 440 990.98 427.451 1045.49C420.392 1075.69 434.118 1125.1 453.725 1174.51C456.863 1174.9 459.608 1175.29 462.745 1175.69C442.745 1126.27 428.627 1076.47 435.294 1047.45Z" fill="black"/>
<path d="M412.549 645.098C412.941 653.726 412.549 659.608 412.549 663.137C412.157 667.451 414.902 671.373 418.823 672.941C423.529 674.902 428.627 672.941 430.98 668.235C434.51 661.961 438.431 653.334 438.431 646.275C438.431 645.883 438.431 645.098 438.431 644.706C430.588 647.843 421.176 650.196 412.549 645.098Z" fill="#CF1020"/>
<path d="M413.725 646.667C414.117 652.157 414.51 657.255 414.51 662.745C414.117 665.098 414.902 667.451 416.47 669.412C421.568 674.51 428.627 671.373 430.588 665.098C433.725 658.824 436.47 652.157 436.47 645.098L439.215 647.059C430.588 648.628 421.568 650.98 413.333 647.451C413.333 647.451 413.725 647.059 413.725 646.667ZM411.764 643.137C412.549 643.137 414.117 643.529 414.902 644.314C421.961 649.412 430.98 647.059 438.039 643.137C439.215 642.353 441.176 643.529 440.784 645.098C440.392 654.118 436.863 662.745 432.157 670.588C427.843 676.471 418.823 676.863 413.725 671.765C411.372 669.412 410.196 665.49 410.588 662.353C410.588 655.686 411.372 649.412 411.764 643.137Z" fill="black"/>
<path d="M781.961 905.882C788.627 859.607 782.353 826.666 780 816.862C778.823 817.647 778.039 818.823 776.863 819.607C775.686 820.784 774.51 821.568 773.333 822.745C775.686 835.294 780 865.098 774.117 904.705C771.372 923.137 770.588 952.156 770.196 985.882C769.412 1018.43 759.215 1099.61 747.059 1176.47C749.804 1175.69 752.549 1174.9 755.294 1174.51C767.451 1098.43 777.255 1018.82 778.039 986.274C778.823 952.549 779.215 923.921 781.961 905.882Z" fill="black"/>
<path d="M872.967 289.385C880.026 272.914 880.026 254.875 868.262 239.189C834.144 194.091 728.654 228.208 669.83 209.385C581.595 180.757 472.183 177.228 407.869 283.11C391.791 309.777 383.948 317.228 361.203 338.404C337.673 360.365 319.242 400.757 317.673 456.052C314.144 567.032 401.203 663.503 401.203 663.503C405.516 669.385 409.438 674.483 412.967 678.797C444.34 716.444 454.144 788.993 444.732 674.483C347.085 636.836 364.732 527.424 412.183 521.542C462.379 515.267 478.065 559.973 480.811 570.953C514.536 549.385 502.379 503.503 498.458 460.757C524.732 448.993 547.085 420.757 558.85 395.267C571.791 413.306 587.477 427.424 606.301 428.993C626.301 430.954 638.065 414.091 641.987 390.169C667.869 424.287 713.752 466.64 785.909 474.875C820.418 478.797 849.046 464.287 868.262 440.365C873.36 441.15 878.066 441.542 882.771 441.15C933.36 436.052 989.83 333.699 872.967 289.385Z" fill="#CF1020"/>
<path d="M-3.5 0.5H1195.5V1199.5H-3.5V0.5Z" stroke="black"/>
<path d="M1130.2 330.588C1368.24 789.02 949.804 1306.27 450.981 1180C227.059 1124.31 47.0589 930.196 9.80403 702.353C-32.5489 475.686 69.804 232.157 261.177 103.922C523.53 -76.4704 887.059 -16.4704 1074.9 241.569C1076.08 242.745 1075.69 244.706 1074.12 245.883C1072.94 247.059 1070.98 246.667 1069.8 245.098C1043.92 211.765 1014.51 181.569 982.353 154.51C929.412 109.412 867.451 74.1179 801.961 50.1963C468.628 -70.588 102.745 130.196 29.804 478.824C-52.5489 869.412 279.608 1229.02 675.686 1175.29C981.177 1136.86 1208.24 854.902 1183.14 548.235C1177.65 474.118 1158.04 400.785 1125.49 333.334C1124.71 332.157 1125.49 330.588 1126.67 329.804C1127.84 329.02 1129.41 329.412 1130.2 330.588Z" fill="#CF1020"/>
</g>
</svg>
